<?xml version="1.0" standalone="no"?>
<!DOCTYPE svg PUBLIC "-//W3C//DTD SVG 1.1//EN"
  "http://www.w3.org/Graphics/SVG/1.1/DTD/svg11.dtd">
<svg width="154.4000015258789mm" height="154.40000152587888mm" viewBox="-86.7249984741211 -86.72499847412108 154.4000015258789 154.40000152587888" xmlns="http://www.w3.org/2000/svg" version="1.1">
	<title>svgOutput</title>
	<desc>made with tinkercad</desc>
<path d="M 66.67500305175781 66.6750030517578 L 30.15999984741211 66.6750030517578 L -71.44000244140625 66.6750030517578 L -85.7249984741211 66.6750030517578 L -85.7249984741211 -85.72499847412108 L -71.44000244140625 -85.72499847412108 L -68.26000213623047 -85.72499847412108 L 30.15999984741211 -85.72499847412108 L 33.34000015258789 -85.72499847412108 L 66.67500305175781 -85.72499847412108 L 66.67500305175781 -49.20999908447264 L 66.67500305175781 -17.459999084472653 L 66.67500305175781 14.289999961853024 L 66.67500305175781 46.04000091552734 L 66.67500305175781 66.6750030517578 M 31.259000778198242 -49.287998199462876 L 31.75 -49.20999908447264 L 32.24100112915039 -49.287998199462876 L 32.685001373291016 -49.51399993896483 L 33.0359992980957 -49.86500167846678 L 33.262001037597656 -50.30899810791014 L 33.34000015258789 -50.79999923706053 L 33.27645492553711 -51.20000076293944 L 33.262001037597656 -51.29100036621092 L 33.0359992980957 -51.73500061035155 L 32.685001373291016 -52.085998535156236 L 32.24100112915039 -52.31200027465819 L 31.75 -52.38999938964842 L 31.259000778198242 -52.31200027465819 L 30.815000534057617 -52.085998535156236 L 30.464000701904297 -51.73500061035155 L 30.238000869750977 -51.29100036621092 L 30.223543167114258 -51.20000076293944 L 30.15999984741211 -50.79999923706053 L 30.238000869750977 -50.30899810791014 L 30.464000701904297 -49.86500167846678 L 30.815000534057617 -49.51399993896483 L 31.259000778198242 -49.287998199462876 M 31.259000778198242 -17.53800010681152 L 31.75 -17.459999084472653 L 32.24100112915039 -17.53800010681152 L 32.685001373291016 -17.76399993896484 L 32.768001556396484 -17.84700012207031 L 33.0359992980957 -18.11499977111816 L 33.262001037597656 -18.559000015258786 L 33.34000015258789 -19.049999237060543 L 33.262001037597656 -19.541000366210934 L 33.0359992980957 -19.98500061035156 L 32.768001556396484 -20.25300025939941 L 32.685001373291016 -20.33600044250488 L 32.402095794677734 -20.479999542236325 L 32.24100112915039 -20.5620002746582 L 31.75 -20.639999389648434 L 31.259000778198242 -20.5620002746582 L 31.097902297973633 -20.479999542236325 L 30.815000534057617 -20.33600044250488 L 30.464000701904297 -19.98500061035156 L 30.238000869750977 -19.541000366210934 L 30.15999984741211 -19.049999237060543 L 30.238000869750977 -18.559000015258786 L 30.464000701904297 -18.11499977111816 L 30.815000534057617 -17.76399993896484 L 31.259000778198242 -17.53800010681152 M 31.259000778198242 14.211999893188473 L 31.75 14.289999961853024 L 32.24100112915039 14.211999893188473 L 32.685001373291016 13.986000061035153 L 33.0359992980957 13.635000228881832 L 33.262001037597656 13.190999984741207 L 33.34000015258789 12.699999809265133 L 33.27455139160156 12.28800010681152 L 33.262001037597656 12.208999633789059 L 33.0359992980957 11.765000343322752 L 32.685001373291016 11.413999557495115 L 32.24100112915039 11.187999725341795 L 31.75 11.109999656677244 L 31.259000778198242 11.187999725341795 L 30.815000534057617 11.413999557495115 L 30.464000701904297 11.765000343322752 L 30.238000869750977 12.208999633789059 L 30.22545051574707 12.28800010681152 L 30.15999984741211 12.699999809265133 L 30.238000869750977 13.190999984741207 L 30.464000701904297 13.635000228881832 L 30.815000534057617 13.986000061035153 L 31.259000778198242 14.211999893188473 M 31.259000778198242 45.9620018005371 L 31.75 46.04000091552734 L 32.24100112915039 45.9620018005371 L 32.685001373291016 45.73600006103515 L 33.0359992980957 45.384998321533196 L 33.20346450805664 45.05599975585937 L 33.262001037597656 44.94100189208984 L 33.34000015258789 44.450000762939446 L 33.262001037597656 43.958999633789055 L 33.0359992980957 43.51499938964843 L 32.685001373291016 43.16400146484374 L 32.24100112915039 42.93799972534179 L 31.75 42.860000610351555 L 31.259000778198242 42.93799972534179 L 30.815000534057617 43.16400146484374 L 30.464000701904297 43.51499938964843 L 30.238000869750977 43.958999633789055 L 30.15999984741211 44.450000762939446 L 30.238000869750977 44.94100189208984 L 30.29653549194336 45.05599975585937 L 30.464000701904297 45.384998321533196 L 30.815000534057617 45.73600006103515 L 31.259000778198242 45.9620018005371 M -70.34100341796875 -49.287998199462876 L -69.8499984741211 -49.20999908447264 L -69.35900115966797 -49.287998199462876 L -68.91500091552734 -49.51399993896483 L -68.56400299072266 -49.86500167846678 L -68.33799743652344 -50.30899810791014 L -68.26000213623047 -50.79999923706053 L -68.32354736328125 -51.20000076293944 L -68.33799743652344 -51.29100036621092 L -68.56400299072266 -51.73500061035155 L -68.91500091552734 -52.085998535156236 L -69.35900115966797 -52.31200027465819 L -69.8499984741211 -52.38999938964842 L -70.34100341796875 -52.31200027465819 L -70.78500366210938 -52.085998535156236 L -71.13600158691406 -51.73500061035155 L -71.36199951171875 -51.29100036621092 L -71.37645721435547 -51.20000076293944 L -71.44000244140625 -50.79999923706053 L -71.36199951171875 -50.30899810791014 L -71.13600158691406 -49.86500167846678 L -70.78500366210938 -49.51399993896483 L -70.34100341796875 -49.287998199462876 M -70.34100341796875 -17.53800010681152 L -69.8499984741211 -17.459999084472653 L -69.63200378417969 -17.49463081359863 L -69.35900115966797 -17.53800010681152 L -68.91500091552734 -17.76399993896484 L -68.56400299072266 -18.11499977111816 L -68.33799743652344 -18.559000015258786 L -68.26000213623047 -19.049999237060543 L -68.33799743652344 -19.541000366210934 L -68.56400299072266 -19.98500061035156 L -68.91500091552734 -20.33600044250488 L -69.1978988647461 -20.479999542236325 L -69.35900115966797 -20.5620002746582 L -69.8499984741211 -20.639999389648434 L -70.34100341796875 -20.5620002746582 L -70.5020980834961 -20.479999542236325 L -70.78500366210938 -20.33600044250488 L -71.13600158691406 -19.98500061035156 L -71.36199951171875 -19.541000366210934 L -71.44000244140625 -19.049999237060543 L -71.36199951171875 -18.559000015258786 L -71.13600158691406 -18.11499977111816 L -70.78500366210938 -17.76399993896484 L -70.34100341796875 -17.53800010681152 M -70.34100341796875 14.211999893188473 L -70.78500366210938 13.986000061035153 L -71.13600158691406 13.635000228881832 L -71.36199951171875 13.190999984741207 L -71.44000244140625 12.699999809265133 L -71.37454986572266 12.28800010681152 L -71.36199951171875 12.208999633789059 L -71.13600158691406 11.765000343322752 L -70.78500366210938 11.413999557495115 L -70.34100341796875 11.187999725341795 L -69.8499984741211 11.109999656677244 L -69.35900115966797 11.187999725341795 L -68.91500091552734 11.413999557495115 L -68.56400299072266 11.765000343322752 L -68.33799743652344 12.208999633789059 L -68.32544708251953 12.28800010681152 L -68.26000213623047 12.699999809265133 L -68.33799743652344 13.190999984741207 L -68.56400299072266 13.635000228881832 L -68.91500091552734 13.986000061035153 L -69.35900115966797 14.211999893188473 L -69.8499984741211 14.289999961853024 L -70.34100341796875 14.211999893188473 M -70.34100341796875 45.9620018005371 L -70.78500366210938 45.73600006103515 L -71.13600158691406 45.384998321533196 L -71.303466796875 45.05599975585937 L -71.36199951171875 44.94100189208984 L -71.44000244140625 44.450000762939446 L -71.36199951171875 43.958999633789055 L -71.13600158691406 43.51499938964843 L -70.78500366210938 43.16400146484374 L -70.34100341796875 42.93799972534179 L -69.8499984741211 42.860000610351555 L -69.35900115966797 42.93799972534179 L -68.91500091552734 43.16400146484374 L -68.56400299072266 43.51499938964843 L -68.33799743652344 43.958999633789055 L -68.26000213623047 44.450000762939446 L -68.33799743652344 44.94100189208984 L -68.39653778076172 45.05599975585937 L -68.56400299072266 45.384998321533196 L -68.91500091552734 45.73600006103515 L -69.35900115966797 45.9620018005371 L -69.8499984741211 46.04000091552734 L -70.34100341796875 45.9620018005371 M -69.8499984741211 14.289999961853024 L -68.26000213623047 14.289999961853024 L -68.26000213623047 12.699999809265133 L -68.26000213623047 11.109999656677244 L -69.8499984741211 11.109999656677244 L -71.44000244140625 11.109999656677244 L -71.44000244140625 12.699999809265133 L -71.44000244140625 14.289999961853024 L -71.18741607666016 14.289999961853024 M -69.8499984741211 46.04000091552734 L -68.26000213623047 46.04000091552734 L -68.26000213623047 44.450000762939446 L -68.26000213623047 42.860000610351555 L -69.8499984741211 42.860000610351555 L -71.44000244140625 42.860000610351555 L -71.44000244140625 44.450000762939446 L -71.44000244140625 46.04000091552734 L -70.80259704589844 46.04000091552734 z" fill="none" stroke="rgb(255,0,0)" stroke-width="0.1mm" />
</svg>